<svg id="Icons" xmlns="http://www.w3.org/2000/svg" viewBox="0 0 32.77 36.39"><defs><style>.cls-1{fill:#ec2027;}</style></defs><path class="cls-1" d="M-160.91,883.89a12.23,12.23,0,0,0-5.75,4c-4.68,6.38-9.71,17.13-13.09,23.75q-1-2-2.05-4c-.41-.79-.83-1.58-1.25-2.37-1.37-2.49-8.77-2.88-7.59-.72a121.11,121.11,0,0,1,6.77,14.68c.26.7,1.13.83,1.79.83a6.42,6.42,0,0,0,1.31-.15,10.24,10.24,0,0,0,1.76-.53,9.85,9.85,0,0,0,2.87-1.67,4.25,4.25,0,0,0,1.22-1.66,149.59,149.59,0,0,1,16.56-30.89c1.38-2-1.62-1.52-2.55-1.21" transform="translate(190.77 -883.61)"/></svg>